<?xml version="1.0" encoding="UTF-8"?>
<mxfile host="app.diagrams.net">
  <diagram name="Trading SaaS MVP Architecture" id="nTf4rW6P3NqFw6W2BGlA">
    <mxGraphModel dx="1100" dy="660" grid="1" gridSize="10" guides="1" tooltips="1" connect="1" arrows="1" fold="1" page="1" pageScale="1" pageWidth="827" pageHeight="1169" math="0" shadow="0">
      <root>
        <mxCell id="0"/>
        <mxCell id="1" parent="0"/>
        
        <!-- API Gateway -->
        <mxCell id="2" value="API Gateway&#xa;(FastAPI)" style="shape=rectangle;whiteSpace=wrap;html=1;" vertex="1" parent="1">
          <mxGeometry x="300" y="20" width="160" height="60" as="geometry"/>
        </mxCell>

        <!-- User Service -->
        <mxCell id="3" value="User Service&#xa;(FastAPI)" style="shape=rectangle;whiteSpace=wrap;html=1;" vertex="1" parent="1">
          <mxGeometry x="50" y="120" width="160" height="60" as="geometry"/>
        </mxCell>

        <!-- Trade Orchestrator -->
        <mxCell id="4" value="Trade Orchestrator&#xa;Service (FastAPI)" style="shape=rectangle;whiteSpace=wrap;html=1;" vertex="1" parent="1">
          <mxGeometry x="300" y="120" width="160" height="60" as="geometry"/>
        </mxCell>

        <!-- Scheduler -->
        <mxCell id="5" value="Scheduler / Cron&#xa;Service (FastAPI)" style="shape=rectangle;whiteSpace=wrap;html=1;" vertex="1" parent="1">
          <mxGeometry x="550" y="120" width="160" height="60" as="geometry"/>
        </mxCell>

        <!-- Notification Service -->
        <mxCell id="6" value="Notification&#xa;Service (FastAPI)" style="shape=rectangle;whiteSpace=wrap;html=1;" vertex="1" parent="1">
          <mxGeometry x="300" y="220" width="160" height="60" as="geometry"/>
        </mxCell>

        <!-- Message Queue -->
        <mxCell id="7" value="Message Queue" style="shape=rectangle;whiteSpace=wrap;html=1;" vertex="1" parent="1">
          <mxGeometry x="300" y="320" width="160" height="60" as="geometry"/>
        </mxCell>

        <!-- Database -->
        <mxCell id="8" value="Database" style="shape=cylinder;whiteSpace=wrap;html=1;" vertex="1" parent="1">
          <mxGeometry x="50" y="220" width="120" height="60" as="geometry"/>
        </mxCell>

        <!-- Object Storage -->
        <mxCell id="9" value="Object Storage" style="shape=cylinder;whiteSpace=wrap;html=1;" vertex="1" parent="1">
          <mxGeometry x="500" y="320" width="120" height="60" as="geometry"/>
        </mxCell>

        <!-- Exchange Adapter 1 -->
        <mxCell id="10" value="Exchange Adapter&#xa;(FastAPI)" style="shape=rectangle;whiteSpace=wrap;html=1;" vertex="1" parent="1">
          <mxGeometry x="550" y="20" width="160" height="60" as="geometry"/>
        </mxCell>

        <!-- Edges -->
        <mxCell id="11" style="edgeStyle=orthogonalEdgeStyle;endArrow=block;" edge="1" parent="1" source="2" target="4">
          <mxGeometry relative="1" as="geometry"/>
        </mxCell>
        <mxCell id="12" style="edgeStyle=orthogonalEdgeStyle;endArrow=block;" edge="1" parent="1" source="4" target="5">
          <mxGeometry relative="1" as="geometry"/>
        </mxCell>
        <mxCell id="13" style="edgeStyle=orthogonalEdgeStyle;endArrow=block;" edge="1" parent="1" source="5" target="6">
          <mxGeometry relative="1" as="geometry"/>
        </mxCell>
        <mxCell id="14" style="edgeStyle=orthogonalEdgeStyle;endArrow=block;" edge="1" parent="1" source="6" target="7">
          <mxGeometry relative="1" as="geometry"/>
        </mxCell>
        <mxCell id="15" style="edgeStyle=orthogonalEdgeStyle;endArrow=block;" edge="1" parent="1" source="4" target="10">
          <mxGeometry relative="1" as="geometry"/>
        </mxCell>
        <mxCell id="16" style="edgeStyle=orthogonalEdgeStyle;endArrow=block;" edge="1" parent="1" source="3" target="8">
          <mxGeometry relative="1" as="geometry"/>
        </mxCell>
        <mxCell id="17" style="edgeStyle=orthogonalEdgeStyle;endArrow=block;" edge="1" parent="1" source="7" target="9">
          <mxGeometry relative="1" as="geometry"/>
        </mxCell>
      </root>
    </mxGraphModel>
  </diagram>
</mxfile>
